<svg
  xmlns="http://www.w3.org/2000/svg"
  xmlns:xlink="http://www.w3.org/1999/xlink"
  width="221"
  height="184"
  viewBox="0 0 221 184"
>
  <defs>
    <style>
      .a,
      .d,
      .g {
        fill: #00b3ed;
      }

      .b {
        opacity: 0.15;
      }

      .c {
        fill: #202020;
        stroke: #919191;
        stroke-width: 0.75px;
      }

      .d,
      .e {
        opacity: 0.68;
      }

      .f {
        clip-path: url(#a);
      }

      .g {
        stroke: rgba(0, 0, 0, 0);
        stroke-miterlimit: 10;
      }

      .h {
        clip-path: url(#b);
      }

      .i {
        stroke: none;
      }

      .j {
        fill: none;
      }
    </style>
    <clipPath id="a">
      <rect
        class="a"
        width="25.643"
        height="25.643"
        transform="translate(0 0)"
      />
    </clipPath>
    <clipPath id="b">
      <rect
        class="a"
        width="40.42"
        height="35.848"
      />
    </clipPath>
  </defs>
  <g transform="translate(-777 -318)">
    <g
      class="b"
      transform="translate(778.145 322.818)"
    >
      <g transform="translate(30.779 15.39)">
        <circle
          cx="23.5"
          cy="23.5"
          r="23.5"
          transform="translate(0.076 -0.208)"
        />
      </g>
      <ellipse
        cx="24"
        cy="23.5"
        rx="24"
        ry="23.5"
        transform="translate(100.855 132.182)"
      />
      <circle
        cx="24"
        cy="24"
        r="24"
        transform="translate(153.855 0.182)"
      />
      <ellipse
        cx="24"
        cy="23"
        rx="24"
        ry="23"
        transform="translate(91.855 55.182)"
      />
      <circle
        cx="23"
        cy="23"
        r="23"
        transform="translate(173.855 89.182)"
      />
      <ellipse
        cx="35"
        cy="35.5"
        rx="35"
        ry="35.5"
        transform="translate(-0.145 84.182)"
      />
    </g>
    <g
      class="c"
      transform="translate(808 334)"
    >
      <circle
        class="i"
        cx="23.5"
        cy="23.5"
        r="23.5"
      />
      <circle
        class="j"
        cx="23.5"
        cy="23.5"
        r="23.125"
      />
    </g>
    <path
      class="d"
      d="M4.685,16.456V9.078l6.384-3.69,6.384,3.69v7.379l-6.384,3.69ZM11.069,0,8.726,1.346,2.343,5.036,0,6.384V19.151L2.343,20.5l6.442,3.69,2.343,1.348,2.343-1.348,6.325-3.69,2.343-1.346V6.384L19.795,5.036l-6.383-3.69Z"
      transform="translate(820.332 344.349)"
    />
    <g
      class="c"
      transform="translate(878 450)"
    >
      <circle
        class="i"
        cx="23.5"
        cy="23.5"
        r="23.5"
      />
      <circle
        class="j"
        cx="23.5"
        cy="23.5"
        r="23.125"
      />
    </g>
    <g
      class="e"
      transform="translate(888.851 460.73)"
    >
      <g
        class="f"
        transform="translate(0 0)"
      >
        <path
          class="a"
          d="M86.794,22.876l-.7.7a9.968,9.968,0,0,1,0,13.453l.7.7a10.974,10.974,0,0,0,0-14.878Z"
          transform="translate(-65.885 -17.495)"
        />
        <path
          class="a"
          d="M23.651,11.419a9.968,9.968,0,0,1,13.453,0l.7-.7a10.974,10.974,0,0,0-14.878,0Z"
          transform="translate(-17.548 -5.976)"
        />
        <path
          class="a"
          d="M11.419,37.14a9.968,9.968,0,0,1,0-13.446l-.7-.7a10.974,10.974,0,0,0,0,14.878Z"
          transform="translate(-5.976 -17.594)"
        />
        <path
          class="a"
          d="M37.117,86.05a9.967,9.967,0,0,1-13.453,0l-.7.7a10.974,10.974,0,0,0,14.877,0Z"
          transform="translate(-17.571 -65.854)"
        />
        <path
          class="a"
          d="M44.275,31.135c-.141-1.469-1.408-1.962-3.011-2.112V27H40.024v1.986h-.99V27H37.8v2.037H35.29v1.326s.915-.016.9,0a.641.641,0,0,1,.7.545v5.576a.441.441,0,0,1-.469.411c.016.014-.9,0-.9,0l-.235,1.481h2.49v2.07h1.239v-2.04h.99v2.03h1.242V38.39c2.094-.127,3.553-.643,3.736-2.6a2.11,2.11,0,0,0-1.779-2.565,1.916,1.916,0,0,0,1.066-2.086m-1.737,4.408c0,1.54-2.638,1.364-3.478,1.364V34.175c.84,0,3.478-.239,3.478,1.368m-.575-3.849c0,1.408-2.2,1.237-2.9,1.237V30.448c.7,0,2.9-.221,2.9,1.246"
          transform="translate(-27.007 -20.663)"
        />
        <path
          class="a"
          d="M12.819,25.643A12.822,12.822,0,1,1,25.643,12.819,12.822,12.822,0,0,1,12.819,25.643ZM12.819,1a11.817,11.817,0,1,0,.014,0Z"
          transform="translate(0 0)"
        />
      </g>
    </g>
    <g
      class="c"
      transform="translate(931 318)"
    >
      <ellipse
        class="i"
        cx="24"
        cy="24.5"
        rx="24"
        ry="24.5"
      />
      <ellipse
        class="j"
        cx="24"
        cy="24.5"
        rx="23.625"
        ry="24.125"
      />
    </g>
    <g
      class="e"
      transform="translate(939.738 328.116)"
    >
      <path
        class="g"
        d="M-6187.067,1237.225a12.59,12.59,0,0,1-8.959-3.711,12.587,12.587,0,0,1-3.712-8.959,12.589,12.589,0,0,1,3.712-8.96,12.587,12.587,0,0,1,8.959-3.712,12.584,12.584,0,0,1,8.959,3.712,12.589,12.589,0,0,1,3.711,8.96,12.587,12.587,0,0,1-3.711,8.959A12.586,12.586,0,0,1-6187.067,1237.225Zm-.54-5.628h.126a9.9,9.9,0,0,0,1.727-.152,8.577,8.577,0,0,0,1.869-.594c.263-.121.521-.272.77-.417l.092-.054.089-.052a9.391,9.391,0,0,0,.847-.68,6.346,6.346,0,0,0,1.663-2.424.2.2,0,0,1,.193-.153.189.189,0,0,1,.038,0h1.5c.12,0,.159-.042.159-.174v-.96a1.621,1.621,0,0,0,0-.275.3.3,0,0,1,.011-.068l0,0h0a.152.152,0,0,0-.013-.141h-1.251c-.151,0-.151-.014-.151-.151a8.064,8.064,0,0,0,0-1.449c0-.068,0-.1.019-.122s.057-.021.116-.021h1.092c.134,0,.174-.037.174-.157v-1.3c-.008-.174-.008-.174-.189-.174h-1.417l-.034,0a.206.206,0,0,1-.2-.169,6.3,6.3,0,0,0-.618-1.212,7.806,7.806,0,0,0-.848-1.053,6.952,6.952,0,0,0-1.395-1.077,7.733,7.733,0,0,0-2.479-.92,9.1,9.1,0,0,0-1.282-.142h-5.939c-.159,0-.159.031-.159.159v4.268c0,.151-.032.151-.151.151h-1.7c-.127,0-.127.023-.127.11v1.393c0,.128.042.128.135.128h1.719c.126,0,.126.023.126.118v1.489c0,.134-.039.134-.143.134h-1.837v1.5c0,.128.042.128.135.128h1.719c.126,0,.126.016.126.118v4.378l0,.011Zm.457-1.429c-.047,0-.1,0-.147-.005h-4.053c-.159,0-.159-.03-.159-.159v-2.749c0-.157.037-.157.159-.157h8.782a1.773,1.773,0,0,1,.2-.012,1.812,1.812,0,0,1,.2.012c.058.029.011.138.006.151a5.118,5.118,0,0,1-2.209,2.225h-.055a3.2,3.2,0,0,1-.579.269,6.022,6.022,0,0,1-1.72.38A2.042,2.042,0,0,1-6187.15,1230.168Zm5.366-4.718h-9.535c-.19,0-.19,0-.19-.182v-1.41c0-.116.035-.151.149-.151h9.583c.1,0,.151.042.151.135a9.259,9.259,0,0,1,0,1.472C-6181.634,1225.45-6181.681,1225.45-6181.785,1225.45Zm-.437-3.327h-9.138c-.151,0-.151-.032-.151-.149v-2.812c0-.106.019-.151.135-.151h4.3a5.943,5.943,0,0,1,1.3.143,5.7,5.7,0,0,1,2.375,1.2,1.91,1.91,0,0,1,.364.356,4.083,4.083,0,0,1,.586.738,3.157,3.157,0,0,1,.287.5.154.154,0,0,1,0,.11h.039c-.015.041-.077.058-.1.062h0Z"
        transform="translate(6201.884 -1210.944)"
      />
    </g>
    <g
      class="c"
      transform="translate(869 373)"
    >
      <ellipse
        class="i"
        cx="24"
        cy="23"
        rx="24"
        ry="23"
      />
      <ellipse
        class="j"
        cx="24"
        cy="23"
        rx="23.625"
        ry="22.625"
      />
    </g>
    <g
      class="e"
      transform="translate(884.453 380.973)"
    >
      <g transform="translate(0 11.646)">
        <path
          class="a"
          d="M0-.22,8.5,5.14V-4.227Z"
          transform="translate(0 4.227)"
        />
      </g>
      <g transform="translate(0.274 0.005)">
        <path
          class="a"
          d="M0-.815,8.229-4.693v-11Z"
          transform="translate(0 15.691)"
        />
      </g>
      <g transform="translate(9.05 0)">
        <path
          class="a"
          d="M0,0V11l8.344,3.933Z"
        />
      </g>
      <g transform="translate(9.05 11.646)">
        <path
          class="a"
          d="M0-.513,8.509-5.87,0-9.88Z"
          transform="translate(0 9.88)"
        />
      </g>
      <g transform="translate(0.057 17.576)">
        <path
          class="a"
          d="M-.463-.7V-8.238l-8.445-5.321Z"
          transform="translate(8.908 13.559)"
        />
      </g>
      <g transform="translate(9.05 17.576)">
        <path
          class="a"
          d="M0-.292V7.242L8.445-5.612Z"
          transform="translate(0 5.612)"
        />
      </g>
    </g>
    <g
      class="c"
      transform="translate(951 407)"
    >
      <circle
        class="i"
        cx="23"
        cy="23"
        r="23"
      />
      <circle
        class="j"
        cx="23"
        cy="23"
        r="22.625"
      />
    </g>
    <g
      class="e"
      transform="translate(961.093 419.93)"
    >
      <path
        class="g"
        d="M-6207.837,1143.134a.2.2,0,0,1-.138-.055l-13.057-12.511a.2.2,0,0,1-.042-.229l4.835-10.155a.2.2,0,0,1,.18-.114h16.446a.2.2,0,0,1,.178.114l4.834,10.155a.2.2,0,0,1-.042.23l-13.056,12.511A.2.2,0,0,1-6207.837,1143.134Zm-1.665-16.839v2.019c-3.815.176-6.584.937-6.584,1.81s2.769,1.634,6.584,1.809v6.475h3.341v-6.478c3.808-.174,6.571-.934,6.571-1.806s-2.763-1.634-6.57-1.81v-2.019h4.625v-3.082h-12.59v3.082Zm1.685,5.123c-.863,0-1.48-.027-1.683-.036-3.415-.151-5.8-.734-5.8-1.418s2.385-1.264,5.8-1.418v2.259h0c.012,0,.672.052,1.7.052,1.106,0,1.62-.049,1.641-.052v-2.258c3.407.152,5.786.735,5.786,1.416s-2.379,1.265-5.786,1.416C-6206.209,1131.384-6206.658,1131.418-6207.817,1131.418Z"
        transform="translate(6221.093 -1120.07)"
      />
    </g>
    <g
      class="c"
      transform="translate(777 403)"
    >
      <circle
        class="i"
        cx="35"
        cy="35"
        r="35"
      />
      <circle
        class="j"
        cx="35"
        cy="35"
        r="34.625"
      />
    </g>
    <g
      class="e"
      transform="translate(792.425 415.832)"
    >
      <g
        class="h"
        transform="translate(0 0)"
      >
        <path
          class="a"
          d="M32,35.846q3.041,0,6.085,0a3.244,3.244,0,0,0,1.282-.216A1.593,1.593,0,0,0,40.411,33.9a3,3,0,0,0-.421-1.179q-3.057-5.346-6.116-10.693a3.18,3.18,0,0,0-.709-.882,1.62,1.62,0,0,0-2.213,0,3.26,3.26,0,0,0-.727.9q-2.866,4.924-5.732,9.849c-.247.419-.488.844-.7,1.282a2,2,0,0,0-.18,1.229,1.594,1.594,0,0,0,1.077,1.251,3.279,3.279,0,0,0,1.216.195q3.05,0,6.1,0m-25.351,0c1.387,0,2.775.008,4.162,0a6.281,6.281,0,0,0,1.2-.111,5.413,5.413,0,0,0,3.74-2.618Q20.8,24.461,25.8,15.787c.258-.447.542-.882.763-1.346a5.653,5.653,0,0,0,.5-3.272,5.219,5.219,0,0,0-.6-1.879Q24.216,5.3,21.956,1.324a3.167,3.167,0,0,0-.75-.919A1.582,1.582,0,0,0,19.129.373a3.131,3.131,0,0,0-.809.979L15.943,5.519Q8.609,18.386,1.272,31.251C.945,31.826.612,32.4.3,32.984A2.271,2.271,0,0,0,0,34.222a1.57,1.57,0,0,0,1.1,1.43,3.277,3.277,0,0,0,1.216.192q2.166,0,4.333,0"
          transform="translate(0 0)"
        />
      </g>
    </g>
  </g>
</svg>
