<svg xmlns="http://www.w3.org/2000/svg" width="19.694" height="19.694" viewBox="0 0 19.694 19.694"><defs><style>.a{fill:#f5bc7c;}.b{fill:#fff;}</style></defs><path class="a" d="M0,11.987a9.847,9.847,0,1,1,9.844,9.847A9.845,9.845,0,0,1,0,11.987m.8,0H1.939a7.9,7.9,0,0,0,7.9,7.9v1.142A9.046,9.046,0,1,0,.8,11.987" transform="translate(0.001 -2.14)"/><path class="b" d="M17.139,11.138a.409.409,0,0,1-.576,0l-1.905-1.9v7.236a.407.407,0,0,1-.813,0V9.242l-1.905,1.9a.412.412,0,0,1-.576,0,.405.405,0,0,1,0-.572l2.6-2.578h0a.457.457,0,0,1,.128-.084.388.388,0,0,1,.156-.031.408.408,0,0,1,.285.116l2.6,2.578A.4.4,0,0,1,17.139,11.138Z" transform="translate(-4.248 -2.875)"/></svg>