<svg xmlns="http://www.w3.org/2000/svg" xmlns:xlink="http://www.w3.org/1999/xlink" width="32" height="32" viewBox="0 0 32 32"><defs><style>.a{fill:none;}.b{fill:#00b3ed;}.c{clip-path:url(#a);}.d{fill:#fff;}</style><clipPath id="a"><rect class="a" width="13.894" height="14.581"/></clipPath></defs><g transform="translate(-554 -2825)"><circle class="b" cx="16" cy="16" r="16" transform="translate(554 2825)"/><g transform="translate(563 2834)"><g class="c" transform="translate(0 0)"><path class="d" d="M9.955,11.464A2.369,2.369,0,0,0,9.267,9.6c2.251-.25,4.627-.56,4.627-4.452a3.121,3.121,0,0,0-1.041-2.373,3.794,3.794,0,0,0-.1-2.737c-.846-.262-2.78,1.089-2.78,1.089a9.564,9.564,0,0,0-5.063,0S2.972-.227,2.127.034a3.772,3.772,0,0,0-.1,2.737,3.053,3.053,0,0,0-.949,2.373c0,3.87,2.269,4.2,4.52,4.452a2.209,2.209,0,0,0-.653,1.36,2.135,2.135,0,0,1-2.912-.8L2,10.11A2.123,2.123,0,0,0,.456,9.067c-.986-.012-.068.621-.068.621.658.3,1.119,1.473,1.119,1.473.591,1.807,3.413,1.2,3.413,1.2,0,.692.008,1.729.011,2.223H9.943c0-.594.012-1.968.012-3.118M1,9.591a.083.083,0,0,1-.017-.013C.9,9.541.866,9.474.894,9.419A.144.144,0,0,1,1.069,9.4c.075.043.111.109.087.158A.115.115,0,0,1,1,9.591M1.563,10c-.055.055-.145.024-.213-.037-.067-.079-.079-.175-.024-.213a.178.178,0,0,1,.212.037c.066.079.079.17.024.213Zm.4.592,0,0v0c-.055.037-.158,0-.224-.087s-.068-.195,0-.237a.167.167,0,0,1,.224.079.174.174,0,0,1,0,.247m.55.552c-.054.067-.175.055-.261-.037s-.115-.195-.055-.25a.189.189,0,0,1,.262.037c.086.092.109.2.054.25m.5.408c-.1-.036-.194-.115-.174-.195s.145-.115.249-.087c.125.032.2.121.174.2s-.145.114-.249.079m.87.134c-.126,0-.225-.055-.225-.146s.088-.146.213-.146.225.055.225.146-.087.146-.213.146m.791-.091c-.115.024-.225-.024-.237-.1s.067-.175.183-.195.224.037.237.115-.06.158-.182.182" transform="translate(0 0)"/></g></g></g></svg>