<svg xmlns="http://www.w3.org/2000/svg" width="234.528" height="172.822" viewBox="0 0 234.528 172.822"><defs><style>.a{opacity:0.08;}.b{fill:#fff;}.c{fill:#00b3ed;}</style></defs><g class="a" transform="translate(-1120.31 -301)"><g transform="translate(1120.31 301)"><rect class="b" width="38.943" height="97.445" transform="translate(195.585 75.372)"/><path class="c" d="M60.874,41.075,95.61,25.99a7.007,7.007,0,0,0,4.207-6.423V2.4h-.144L66.792,16.69A9.825,9.825,0,0,0,60.874,25.7Z" transform="translate(134.711 22.342)"/><path class="b" d="M75.563,74.769A54,54,0,0,1,182.308,86.41a52.862,52.862,0,0,1-1.031,9.877L199.3,135.632A86.433,86.433,0,1,0,43.59,69.078c-10.744,55.316,31.334,103.744,84.732,103.744a86.148,86.148,0,0,0,13.919-1.227l-14.053-31.21A54.045,54.045,0,0,1,75.563,74.769" transform="translate(-41.905 0)"/><path class="c" d="M116.823,67.979H76.334L50.815,11.261H91.16Z" transform="translate(41.056 104.838)"/></g></g></svg>