<svg xmlns="http://www.w3.org/2000/svg" width="32" height="32" viewBox="0 0 32 32"><defs><style>.a{fill:#00b3ed;}.b{fill:#fff;}</style></defs><g transform="translate(-515 -2825)"><circle class="a" cx="16" cy="16" r="16" transform="translate(515 2825)"/><g transform="translate(519.625 2827.125)"><path class="b" d="M20.138,10.339l-4.372,4.453a.079.079,0,0,0,0,.114l3.059,3.258a.527.527,0,0,1,0,.748.53.53,0,0,1-.748,0l-3.047-3.246a.083.083,0,0,0-.118,0l-.743.756a3.271,3.271,0,0,1-2.332.983,3.337,3.337,0,0,1-2.381-1.012l-.715-.727a.083.083,0,0,0-.118,0L5.577,18.911a.53.53,0,0,1-.748,0,.527.527,0,0,1,0-.748l3.059-3.258a.087.087,0,0,0,0-.114L3.513,10.339a.08.08,0,0,0-.138.057v8.91a1.3,1.3,0,0,0,1.3,1.3h14.3a1.3,1.3,0,0,0,1.3-1.3V10.4A.081.081,0,0,0,20.138,10.339Z" transform="translate(0 -1.03)"/><path class="b" d="M12.185,15.314a2.209,2.209,0,0,0,1.589-.666l6.374-6.488a1.277,1.277,0,0,0-.8-.284H5.03a1.268,1.268,0,0,0-.8.284L10.6,14.648A2.209,2.209,0,0,0,12.185,15.314Z" transform="translate(-0.359 0)"/></g></g></svg>