<svg xmlns="http://www.w3.org/2000/svg" width="32" height="32" viewBox="0 0 32 32"><defs><style>.a{fill:#00b3ed;}.b{fill:#fff;}</style></defs><g transform="translate(-593 -2825)"><circle class="a" cx="16" cy="16" r="16" transform="translate(593 2825)"/><path class="b" d="M2.74,6.879a.574.574,0,0,0-.185-.48L1.184,4.746V4.5h4.26l3.294,7.223,2.9-7.223H15.7v.246L14.523,5.87a.342.342,0,0,0-.131.328v8.265a.342.342,0,0,0,.131.328l1.146,1.124v.246H9.9v-.246l1.188-1.152c.115-.115.115-.152.115-.328V7.757l-3.3,8.383H7.458L3.618,7.757v5.618a.765.765,0,0,0,.213.644l1.544,1.872v.246H1v-.243L2.542,14.02a.74.74,0,0,0,.2-.644Z" transform="translate(601.001 2830.5)"/></g></svg>