<svg xmlns="http://www.w3.org/2000/svg" width="42.438" height="42.4" viewBox="0 0 42.438 42.4"><defs><style>.a{fill:#00b3ed;stroke:#1c2025;}</style></defs><path class="a" d="M23.271,5.679,40.619,40.255H5.922L23.271,5.679Zm0-3.751a2.992,2.992,0,0,0-2.462,1.805L3.138,38.952c-1.354,2.407-.2,4.376,2.559,4.376H40.844c2.761,0,3.913-1.969,2.559-4.376h0L25.732,3.733a2.992,2.992,0,0,0-2.461-1.805Zm2.588,33.638a2.588,2.588,0,1,1-2.588-2.588A2.588,2.588,0,0,1,25.858,35.566Zm-2.588-5.175A2.588,2.588,0,0,1,20.683,27.8V20.041a2.588,2.588,0,0,1,5.175,0V27.8A2.588,2.588,0,0,1,23.271,30.391Z" transform="translate(-2.052 -1.428)"/></svg>