<svg xmlns="http://www.w3.org/2000/svg" width="19.694" height="19.694" viewBox="0 0 19.694 19.694"><defs><style>.a{fill:#00b3ed;}.b{fill:#fff;}</style></defs><g transform="translate(-737 -450)"><path class="a" d="M19.693,11.987A9.847,9.847,0,1,1,9.849,2.14a9.845,9.845,0,0,1,9.844,9.847m-.8,0H17.753a7.9,7.9,0,0,0-7.9-7.9V2.941a9.046,9.046,0,1,0,9.043,9.046" transform="translate(737.001 447.86)"/><path class="b" d="M17.139,13.619a.409.409,0,0,0-.576,0l-1.905,1.9V8.279a.407.407,0,0,0-.813,0v7.236l-1.905-1.9a.412.412,0,0,0-.576,0,.405.405,0,0,0,0,.572l2.6,2.578h0a.457.457,0,0,0,.128.084.388.388,0,0,0,.156.031.408.408,0,0,0,.285-.116l2.6-2.578A.4.4,0,0,0,17.139,13.619Z" transform="translate(732.752 447.125)"/></g></svg>