<svg xmlns="http://www.w3.org/2000/svg" width="32" height="32" viewBox="0 0 32 32"><defs><style>.a{fill:#00b3ed;}.b{fill:#fff;}</style></defs><g transform="translate(-437 -2825)"><circle class="a" cx="16" cy="16" r="16" transform="translate(437 2825)"/><path class="b" d="M16.878,5.82,14.324,17.866c-.193.85-.7,1.062-1.409.661L9.023,15.659,7.145,17.465a.977.977,0,0,1-.782.382l.28-3.963,7.213-6.518c.314-.28-.068-.435-.487-.155L4.451,12.825l-3.839-1.2c-.835-.261-.85-.835.174-1.236L15.8,4.6c.7-.261,1.3.155,1.077,1.217Z" transform="translate(442.921 2829.264)"/></g></svg>