<svg xmlns="http://www.w3.org/2000/svg" width="32" height="32" viewBox="0 0 32 32"><defs><style>.a{fill:#00b3ed;}.b{fill:#fff;}</style></defs><g transform="translate(-476 -2825)"><circle class="a" cx="16" cy="16" r="16" transform="translate(476 2825)"/><path class="b" d="M15.2,6.811c.011.151.011.3.011.452a9.814,9.814,0,0,1-9.882,9.882A9.815,9.815,0,0,1,0,15.586a7.185,7.185,0,0,0,.839.043,6.956,6.956,0,0,0,4.312-1.484A3.479,3.479,0,0,1,1.9,11.736a4.38,4.38,0,0,0,.656.054,3.673,3.673,0,0,0,.914-.118A3.474,3.474,0,0,1,.688,8.263V8.22a3.5,3.5,0,0,0,1.57.441A3.478,3.478,0,0,1,1.183,4.015,9.873,9.873,0,0,0,8.344,7.65a3.921,3.921,0,0,1-.086-.8,3.477,3.477,0,0,1,6.011-2.376,6.838,6.838,0,0,0,2.2-.839,3.464,3.464,0,0,1-1.527,1.914,6.963,6.963,0,0,0,2-.538,7.466,7.466,0,0,1-1.742,1.8Z" transform="translate(484 2830.619)"/></g></svg>