<svg xmlns="http://www.w3.org/2000/svg" xmlns:xlink="http://www.w3.org/1999/xlink" width="87.049" height="60.882" viewBox="0 0 87.049 60.882"><defs><style>.a{fill:#fff;}.b{clip-path:url(#a);}</style><clipPath id="a"><rect class="a" width="87.049" height="60.882"/></clipPath></defs><path class="a" d="M45.654,0V37.477H41.395V0L0,44.973H24.7V37.307H17.887L33.559,21.634V44.972h20.1V21.634l15.5,15.673H62.518v7.665h24.53Z" transform="translate(0 0)"/><g transform="translate(0)"><g class="b"><path class="a" d="M5.679,208.747l-.922-2.391q-.041-.107-.086-.248t-.086-.3a4.51,4.51,0,0,1-.176.554l-.922,2.386Zm1.656,2.181H6.719a.264.264,0,0,1-.172-.054.325.325,0,0,1-.1-.135L5.9,209.32H3.264l-.549,1.419a.29.29,0,0,1-.094.131.264.264,0,0,1-.172.057H1.833l2.349-5.875h.8Zm4.6-4.957a.305.305,0,0,1-.08.092.176.176,0,0,1-.1.031.291.291,0,0,1-.164-.07,2.8,2.8,0,0,0-.236-.154,1.915,1.915,0,0,0-.34-.154,1.456,1.456,0,0,0-.482-.07,1.4,1.4,0,0,0-.47.072,1.008,1.008,0,0,0-.34.195.794.794,0,0,0-.207.289.916.916,0,0,0-.07.359.662.662,0,0,0,.121.408,1.039,1.039,0,0,0,.32.277,2.474,2.474,0,0,0,.451.2l.517.174q.265.09.517.2a1.812,1.812,0,0,1,.451.285,1.306,1.306,0,0,1,.32.422,1.407,1.407,0,0,1,.121.616,1.986,1.986,0,0,1-.131.723,1.668,1.668,0,0,1-.383.589,1.8,1.8,0,0,1-.619.394,2.281,2.281,0,0,1-.834.143,2.539,2.539,0,0,1-1.041-.207,2.44,2.44,0,0,1-.8-.56l.23-.377a.3.3,0,0,1,.08-.076.189.189,0,0,1,.1-.031.233.233,0,0,1,.121.043q.068.043.154.109t.2.143a1.592,1.592,0,0,0,.252.143,1.675,1.675,0,0,0,.321.109,1.752,1.752,0,0,0,.406.043,1.51,1.51,0,0,0,.5-.078,1.068,1.068,0,0,0,.375-.22.953.953,0,0,0,.236-.338,1.131,1.131,0,0,0,.082-.439.738.738,0,0,0-.121-.437,1,1,0,0,0-.318-.285,2.213,2.213,0,0,0-.451-.195l-.517-.164a5.387,5.387,0,0,1-.517-.195,1.659,1.659,0,0,1-.451-.287,1.318,1.318,0,0,1-.318-.441,1.689,1.689,0,0,1,0-1.257,1.534,1.534,0,0,1,.353-.517,1.725,1.725,0,0,1,.57-.361,2.078,2.078,0,0,1,.776-.135,2.47,2.47,0,0,1,.9.156,2.111,2.111,0,0,1,.711.451Zm6.387,3.743a.151.151,0,0,1,.115.054l.316.34a2.519,2.519,0,0,1-.875.652,2.992,2.992,0,0,1-1.244.234,2.91,2.91,0,0,1-1.148-.219,2.526,2.526,0,0,1-.882-.616,2.781,2.781,0,0,1-.566-.949,3.544,3.544,0,0,1-.2-1.218,3.422,3.422,0,0,1,.209-1.218,2.789,2.789,0,0,1,.589-.951,2.634,2.634,0,0,1,.908-.616,3.032,3.032,0,0,1,1.168-.219,2.853,2.853,0,0,1,1.107.2,2.787,2.787,0,0,1,.845.545l-.262.365a.215.215,0,0,1-.063.067.181.181,0,0,1-.1.027.327.327,0,0,1-.18-.08,2.685,2.685,0,0,0-.279-.178,2.083,2.083,0,0,0-1.066-.259,2.141,2.141,0,0,0-.832.158,1.815,1.815,0,0,0-.65.457,2.106,2.106,0,0,0-.424.73,2.916,2.916,0,0,0-.152.972,2.832,2.832,0,0,0,.158.98,2.164,2.164,0,0,0,.43.728,1.822,1.822,0,0,0,.642.453,2.049,2.049,0,0,0,.8.156,3.3,3.3,0,0,0,.474-.031,1.919,1.919,0,0,0,.389-.1,1.624,1.624,0,0,0,.332-.166,2.367,2.367,0,0,0,.305-.241.21.21,0,0,1,.14-.061Zm5.8.566,0,.648H20.5v-5.875h3.62v.648H21.291v1.952h2.288v.623H21.291v2.005Zm6.691-5.228v5.875h-.4a.346.346,0,0,1-.158-.033.4.4,0,0,1-.125-.111l-3.4-4.428c.005.069.01.135.012.2s0,.127,0,.185v4.187h-.7v-5.875h.41a.543.543,0,0,1,.09.006.228.228,0,0,1,.066.021.255.255,0,0,1,.057.041.639.639,0,0,1,.062.068l3.4,4.424q-.008-.107-.014-.207c0-.067-.006-.13-.006-.191v-4.162Zm5.327.918a.3.3,0,0,1-.08.092.176.176,0,0,1-.1.031.291.291,0,0,1-.164-.07q-.094-.07-.236-.154a1.915,1.915,0,0,0-.34-.154,1.456,1.456,0,0,0-.482-.07,1.4,1.4,0,0,0-.47.072,1.011,1.011,0,0,0-.34.195.794.794,0,0,0-.207.289.916.916,0,0,0-.07.359.662.662,0,0,0,.121.408,1.039,1.039,0,0,0,.32.277,2.466,2.466,0,0,0,.451.2l.517.174q.264.09.517.2a1.817,1.817,0,0,1,.451.285,1.306,1.306,0,0,1,.32.422,1.407,1.407,0,0,1,.121.616,1.986,1.986,0,0,1-.131.723,1.668,1.668,0,0,1-.383.589,1.8,1.8,0,0,1-.619.394,2.282,2.282,0,0,1-.834.143,2.54,2.54,0,0,1-1.041-.207,2.44,2.44,0,0,1-.8-.56l.23-.377a.3.3,0,0,1,.08-.076.189.189,0,0,1,.1-.031.233.233,0,0,1,.121.043q.068.043.154.109t.2.143a1.6,1.6,0,0,0,.252.143,1.675,1.675,0,0,0,.321.109,1.752,1.752,0,0,0,.406.043,1.514,1.514,0,0,0,.5-.078,1.073,1.073,0,0,0,.375-.219.953.953,0,0,0,.236-.338,1.13,1.13,0,0,0,.082-.439.738.738,0,0,0-.121-.437,1,1,0,0,0-.318-.285,2.2,2.2,0,0,0-.451-.195l-.517-.164a5.409,5.409,0,0,1-.517-.195,1.66,1.66,0,0,1-.451-.287,1.315,1.315,0,0,1-.317-.44,1.689,1.689,0,0,1,0-1.257,1.538,1.538,0,0,1,.353-.517,1.725,1.725,0,0,1,.57-.361,2.079,2.079,0,0,1,.776-.135,2.471,2.471,0,0,1,.9.156,2.111,2.111,0,0,1,.711.451Zm3.058,4.957h-.8v-5.875h.8Zm7.1-5.875L43.9,210.928h-.713l-2.394-5.875h.636a.266.266,0,0,1,.172.054.327.327,0,0,1,.1.135l1.656,4.145q.053.139.1.3t.092.344q.041-.18.086-.344t.1-.3l1.652-4.145a.3.3,0,0,1,.1-.129.265.265,0,0,1,.175-.059Zm5.219,5.227,0,.648h-3.62v-5.875h3.62v.648H48.682v1.952H50.97v.623H48.682v2.005Zm7.7-1.533-.922-2.391q-.041-.107-.086-.248t-.086-.3a4.512,4.512,0,0,1-.176.554l-.922,2.386Zm1.657,2.181h-.616a.264.264,0,0,1-.172-.054.323.323,0,0,1-.1-.135l-.55-1.419H56.792l-.551,1.419a.286.286,0,0,1-.094.131.262.262,0,0,1-.172.057h-.616l2.349-5.875h.8Zm4.6-4.957a.3.3,0,0,1-.081.092.174.174,0,0,1-.1.031.292.292,0,0,1-.164-.07,2.785,2.785,0,0,0-.236-.154,1.914,1.914,0,0,0-.34-.154,1.455,1.455,0,0,0-.482-.07,1.406,1.406,0,0,0-.47.072,1.012,1.012,0,0,0-.34.195.8.8,0,0,0-.207.289.925.925,0,0,0-.069.359.66.66,0,0,0,.121.408,1.039,1.039,0,0,0,.32.277,2.475,2.475,0,0,0,.451.2l.516.174q.265.09.517.2a1.817,1.817,0,0,1,.451.285,1.3,1.3,0,0,1,.32.422,1.407,1.407,0,0,1,.121.616,1.986,1.986,0,0,1-.131.723,1.668,1.668,0,0,1-.383.589,1.8,1.8,0,0,1-.619.394,2.281,2.281,0,0,1-.834.143,2.54,2.54,0,0,1-1.041-.207,2.44,2.44,0,0,1-.8-.56l.23-.377a.3.3,0,0,1,.08-.076.188.188,0,0,1,.1-.031.233.233,0,0,1,.121.043c.045.029.1.065.154.109s.123.092.2.143a1.592,1.592,0,0,0,.252.143,1.681,1.681,0,0,0,.321.109,1.751,1.751,0,0,0,.406.043,1.51,1.51,0,0,0,.5-.078,1.067,1.067,0,0,0,.375-.219.95.95,0,0,0,.236-.338,1.131,1.131,0,0,0,.082-.439.738.738,0,0,0-.121-.437,1,1,0,0,0-.318-.285,2.188,2.188,0,0,0-.451-.195l-.517-.164a5.415,5.415,0,0,1-.517-.195,1.654,1.654,0,0,1-.451-.287,1.319,1.319,0,0,1-.317-.44,1.57,1.57,0,0,1-.121-.654,1.552,1.552,0,0,1,.121-.6,1.534,1.534,0,0,1,.353-.517,1.728,1.728,0,0,1,.57-.361,2.078,2.078,0,0,1,.776-.135,2.471,2.471,0,0,1,.9.156,2.111,2.111,0,0,1,.711.451Zm5.268,0a.3.3,0,0,1-.08.092.176.176,0,0,1-.1.031.292.292,0,0,1-.164-.07,2.794,2.794,0,0,0-.236-.154,1.915,1.915,0,0,0-.34-.154,1.457,1.457,0,0,0-.482-.07,1.4,1.4,0,0,0-.47.072,1.008,1.008,0,0,0-.34.195.8.8,0,0,0-.207.289.916.916,0,0,0-.07.359.665.665,0,0,0,.121.408,1.047,1.047,0,0,0,.32.277,2.472,2.472,0,0,0,.451.2l.517.174q.264.09.517.2a1.817,1.817,0,0,1,.451.285,1.306,1.306,0,0,1,.32.422,1.407,1.407,0,0,1,.121.616,1.986,1.986,0,0,1-.131.723,1.668,1.668,0,0,1-.383.589,1.8,1.8,0,0,1-.621.393,2.28,2.28,0,0,1-.834.143,2.538,2.538,0,0,1-1.041-.207,2.443,2.443,0,0,1-.8-.56l.23-.377a.3.3,0,0,1,.08-.076.189.189,0,0,1,.1-.031.232.232,0,0,1,.121.043q.068.043.154.109c.057.044.123.091.2.143a1.593,1.593,0,0,0,.252.143,1.7,1.7,0,0,0,.321.109,1.759,1.759,0,0,0,.406.043,1.511,1.511,0,0,0,.506-.078,1.073,1.073,0,0,0,.375-.219.956.956,0,0,0,.236-.338,1.135,1.135,0,0,0,.082-.439.738.738,0,0,0-.121-.437,1,1,0,0,0-.318-.285,2.2,2.2,0,0,0-.451-.195l-.516-.164a5.382,5.382,0,0,1-.517-.195,1.66,1.66,0,0,1-.451-.287,1.32,1.32,0,0,1-.316-.44,1.694,1.694,0,0,1,0-1.258,1.538,1.538,0,0,1,.353-.516,1.725,1.725,0,0,1,.57-.361,2.082,2.082,0,0,1,.776-.135,2.477,2.477,0,0,1,.9.156,2.112,2.112,0,0,1,.711.451Zm5.887,4.309,0,.648h-3.62v-5.875h3.62v.648H73.79v1.952h2.287v.623H73.79v2.005Zm5.9-4.559h-1.9v5.207h-.791v-5.207H77.923v-.669h4.6Zm4.67.25a.3.3,0,0,1-.08.092.176.176,0,0,1-.1.031.293.293,0,0,1-.164-.07,2.758,2.758,0,0,0-.236-.154,1.905,1.905,0,0,0-.34-.154,1.457,1.457,0,0,0-.482-.07,1.407,1.407,0,0,0-.47.072,1.007,1.007,0,0,0-.34.195.8.8,0,0,0-.207.289.925.925,0,0,0-.069.359.662.662,0,0,0,.121.408,1.039,1.039,0,0,0,.32.277,2.476,2.476,0,0,0,.451.2l.517.174q.264.09.517.2a1.826,1.826,0,0,1,.451.285,1.306,1.306,0,0,1,.32.422,1.407,1.407,0,0,1,.121.615,1.986,1.986,0,0,1-.131.723,1.668,1.668,0,0,1-.383.589,1.8,1.8,0,0,1-.618.393,2.28,2.28,0,0,1-.834.143,2.538,2.538,0,0,1-1.041-.207,2.444,2.444,0,0,1-.8-.56l.23-.377a.3.3,0,0,1,.08-.076.189.189,0,0,1,.1-.031.231.231,0,0,1,.121.043q.068.043.154.109t.2.143a1.6,1.6,0,0,0,.252.143,1.716,1.716,0,0,0,.321.109,1.753,1.753,0,0,0,.406.043,1.508,1.508,0,0,0,.5-.078,1.068,1.068,0,0,0,.375-.219.954.954,0,0,0,.236-.338,1.135,1.135,0,0,0,.082-.439.738.738,0,0,0-.121-.437,1,1,0,0,0-.318-.285,2.2,2.2,0,0,0-.451-.195l-.517-.164a5.407,5.407,0,0,1-.517-.195,1.655,1.655,0,0,1-.451-.287,1.319,1.319,0,0,1-.318-.441,1.57,1.57,0,0,1-.121-.654,1.552,1.552,0,0,1,.121-.6,1.536,1.536,0,0,1,.353-.517,1.727,1.727,0,0,1,.57-.361,2.077,2.077,0,0,1,.776-.135,2.471,2.471,0,0,1,.9.156,2.112,2.112,0,0,1,.711.451Z" transform="translate(-1.342 -150.113)"/></g></g></svg>