<svg xmlns="http://www.w3.org/2000/svg" xmlns:xlink="http://www.w3.org/1999/xlink" width="85.686" height="20.59" viewBox="0 0 85.686 20.59"><defs><style>.a{fill:#fff;}.b{clip-path:url(#a);}.c{clip-path:url(#b);}.d{clip-path:url(#c);}.e{clip-path:url(#d);}</style><clipPath id="a"><path class="a" d="M.335,26.963a.669.669,0,0,0-.335.58v8.963a.669.669,0,0,0,.335.58L8.1,41.568A.67.67,0,0,0,9.1,40.984L9.081,36.5a.67.67,0,0,0-.336-.578L6.68,34.736A.67.67,0,0,0,6.011,35.9l1.732,1,.014,2.929-6.416-3.7V28.7L8.1,32.594a.67.67,0,1,0,.669-1.162L1,26.962a.671.671,0,0,0-.67,0" transform="translate(0 -26.873)"/></clipPath><clipPath id="b"><path class="a" d="M57.443,26.962l-7.762,4.47a.67.67,0,0,0-.336.581v8.975a.67.67,0,0,0,1.005.58l7.762-4.482a.67.67,0,0,0-.67-1.161l-6.756,3.9V32.4l7.426-4.276a.671.671,0,0,0-.669-1.162" transform="translate(-49.345 -26.873)"/></clipPath><clipPath id="c"><path class="a" d="M17.054.09,9.936,4.2a.67.67,0,1,0,.67,1.161l6.783-3.916,6.783,3.916a.67.67,0,0,0,.67-1.161L17.725.09a.669.669,0,0,0-.67,0" transform="translate(-9.601)"/></clipPath><clipPath id="d"><rect class="a" width="85.686" height="20.59"/></clipPath></defs><g transform="translate(0 5.805)"><g class="b"><rect class="a" width="15.358" height="17.403" transform="translate(-6.402 3.696) rotate(-30)"/></g></g><g transform="translate(10.66 5.805)"><g class="c"><rect class="a" width="17.173" height="14.135" transform="translate(-5.205 12.642) rotate(-67.62)"/></g></g><g transform="translate(2.074 0)"><g class="d"><rect class="a" width="15.768" height="5.546" transform="translate(-0.095 0)"/></g></g><g transform="translate(0 0)"><g class="e"><path class="a" d="M363.894,39.415h.539l-1.328-7.363H362.4l-1.338,7.363h.539l.354-2.043h1.591Zm-1.855-2.52.631-3.64c.031-.207.062-.415.083-.633.031.228.062.456.1.685l.609,3.588Z" transform="translate(-283.061 -25.128)"/><path class="a" d="M383.1,39.565V32.244h.508v6.865h2.416v.456Z" transform="translate(-300.334 -25.278)"/><path class="a" d="M185.385,39.565V32.244h.508v6.865h2.416v.456Z" transform="translate(-145.336 -25.278)"/><path class="a" d="M125.739,32.7v2.821h2.095v.446h-2.095v3.142h2.085v.456h-2.582V32.244h2.593V32.7Z" transform="translate(-98.185 -25.278)"/><path class="a" d="M145.58,39.565l-1.7-6.7.041,6.7h-.487V32.244h.747l1.752,6.826-.073-6.826h.5v7.322Z" transform="translate(-112.447 -25.278)"/><path class="a" d="M168.542,34.593V33.6a1.276,1.276,0,0,0-.363-1.047,1.493,1.493,0,0,0-1.016-.311H165.7v7.322h1.462a1.493,1.493,0,0,0,1.016-.311,1.276,1.276,0,0,0,.363-1.048v-.95a1.074,1.074,0,0,0-.933-1.332,1.074,1.074,0,0,0,.933-1.332m-1.452-1.781a1.357,1.357,0,0,1,.8.183,1.457,1.457,0,0,1,.148.835V34.6a1.569,1.569,0,0,1-.062.5c-.2.539-.747.6-1.234.6h-.518V32.811Zm0,6.185h-.871v-2.85h.518c.487,0,1.037.062,1.234.6a1.569,1.569,0,0,1,.062.5v.732a1.458,1.458,0,0,1-.148.836,1.359,1.359,0,0,1-.8.183" transform="translate(-129.903 -25.277)"/><path class="a" d="M205.365,38.724a1.4,1.4,0,0,1-1.286.633,1.524,1.524,0,0,1-1.141-.446,1.812,1.812,0,0,1-.321-1.213V33.57a2.81,2.81,0,0,1,.114-.83,1.36,1.36,0,0,1,1.4-.881,1.563,1.563,0,0,1,.934.27,1.819,1.819,0,0,1,.518,1.6V37.77a1.706,1.706,0,0,1-.218.954m-.27-4.719a2.662,2.662,0,0,0-.176-1.234.715.715,0,0,0-.332-.342,1.091,1.091,0,0,0-1.047.041,1.146,1.146,0,0,0-.425,1V37.5a2.65,2.65,0,0,0,.083.83,1.014,1.014,0,0,0,1.483.394,1.268,1.268,0,0,0,.415-1.151Z" transform="translate(-158.845 -24.976)"/><path class="a" d="M226.76,38.6a1.31,1.31,0,0,1-1.4.819,1.323,1.323,0,0,1-1.328-.892,2.55,2.55,0,0,1-.1-.882V33.671a1.835,1.835,0,0,1,.27-1.213,1.367,1.367,0,0,1,1.182-.55,1.282,1.282,0,0,1,1.286.757,1.9,1.9,0,0,1,.1.653v1.027h-.5v-.487a2.415,2.415,0,0,0-.135-1.089.712.712,0,0,0-.27-.27.884.884,0,0,0-.477-.124,1.007,1.007,0,0,0-.529.145,1.113,1.113,0,0,0-.436,1.006v3.609a2.979,2.979,0,0,0,.186,1.379.764.764,0,0,0,.3.3,1.16,1.16,0,0,0,.529.124.976.976,0,0,0,.456-.1.917.917,0,0,0,.435-.882V36.782h.519v1.131a1.781,1.781,0,0,1-.093.684" transform="translate(-175.553 -25.015)"/><path class="a" d="M246.991,39.565l-1.338-3.8-.539,1.016v2.779h-.5V32.244h.508v3.588l1.825-3.588h.57l-1.556,2.914,1.576,4.408Z" transform="translate(-191.771 -25.278)"/><path class="a" d="M277.926,38.6a1.31,1.31,0,0,1-1.4.819,1.324,1.324,0,0,1-1.328-.892,2.549,2.549,0,0,1-.1-.882V33.671a1.835,1.835,0,0,1,.27-1.213,1.367,1.367,0,0,1,1.182-.55,1.282,1.282,0,0,1,1.286.757,1.9,1.9,0,0,1,.1.653v1.027h-.5v-.487a2.415,2.415,0,0,0-.135-1.089.712.712,0,0,0-.27-.27.885.885,0,0,0-.477-.124,1.007,1.007,0,0,0-.529.145,1.113,1.113,0,0,0-.436,1.006v3.609a2.98,2.98,0,0,0,.186,1.379.764.764,0,0,0,.3.3,1.16,1.16,0,0,0,.529.124.976.976,0,0,0,.456-.1.917.917,0,0,0,.435-.882V36.782h.519v1.131a1.78,1.78,0,0,1-.093.684" transform="translate(-215.665 -25.015)"/><path class="a" d="M318.745,35.758a1.654,1.654,0,0,1-1.307.467h-.747v3.339h-.508V32.242h1.141a1.958,1.958,0,0,1,1.317.291c.394.321.394.8.394,1.338v.83a1.454,1.454,0,0,1-.29,1.058m-.207-1.69c0-.653-.011-1.006-.3-1.224a1.091,1.091,0,0,0-.778-.176h-.778V35.8h.83a1.016,1.016,0,0,0,.788-.259,1.184,1.184,0,0,0,.239-.84Z" transform="translate(-247.878 -25.276)"/><rect class="a" width="0.529" height="7.322" transform="translate(72.713 6.966)"/><path class="a" d="M346.345,32.7v6.865h-.518V32.7h-1.276v-.456h3.091V32.7Z" transform="translate(-270.116 -25.278)"/><path class="a" d="M106.56,37.687a2.205,2.205,0,0,1-.1.778.855.855,0,0,1-.857.467c-.031,0-.068,0-.12,0a.882.882,0,0,1-.756-.506,2.015,2.015,0,0,1-.143-.887c0-.025,0-3.769,0-3.769,0-.456-.041-.944.353-1.275a1.014,1.014,0,0,1,.643-.2.844.844,0,0,1,.851.467,2.2,2.2,0,0,1,.1.778V34.3h.487V33.28a2.541,2.541,0,0,0-.052-.539,1.267,1.267,0,0,0-1.359-.882,1.57,1.57,0,0,0-.933.228.98.98,0,0,0-.238.2,1.715,1.715,0,0,0-.353,1.244l0,4.169a2.629,2.629,0,0,0,.049.53,1.439,1.439,0,0,0,.229.58,1.493,1.493,0,0,0,.1.135,1.122,1.122,0,0,0,.1.094,1.342,1.342,0,0,0,.9.331h.171a1.311,1.311,0,0,0,1.389-.881,2.541,2.541,0,0,0,.052-.539l0-2.022H105.48v.446h1.079Z" transform="translate(-81.595 -24.976)"/><path class="a" d="M296.983,39.415h.54L296.2,32.052h-.705l-1.338,7.363h.539l.354-2.043h1.591Zm-1.855-2.52.631-3.64c.031-.207.062-.415.083-.633.031.228.062.456.1.685l.609,3.588Z" transform="translate(-230.605 -25.128)"/></g></g></svg>