<svg xmlns="http://www.w3.org/2000/svg" xmlns:xlink="http://www.w3.org/1999/xlink" width="61.527" height="31.708" viewBox="0 0 61.527 31.708"><defs><style>.a{fill:none;}.b{clip-path:url(#a);}.c{fill:#fff;}</style><clipPath id="a"><rect class="a" width="61.527" height="31.708"/></clipPath></defs><g class="b"><path class="c" d="M2.486,318.545h.88l2.462,5.715H4.666l-.533-1.308H1.655l-.517,1.308H0Zm1.292,3.536-.88-2.325L2,322.081Zm3.141-3.536H8.09l1.558,4.319,1.606-4.319h1.1l-2.309,5.715h-.88Zm9.068,0h.88l2.462,5.715H18.166l-.533-1.308H15.155l-.517,1.308H13.5Zm1.292,3.536-.88-2.325-.9,2.325Zm4.3-3.536H22.6v4.795h2.43v.92H21.578Zm7.649,0h.88l2.462,5.715H31.407l-.533-1.308H28.4l-.517,1.308H26.741Zm1.292,3.536-.88-2.325-.9,2.325Zm4.3-3.536h1.348l2.769,4.246h.016v-4.246h1.017v5.715H38.677l-2.825-4.383h-.016v4.383H34.818Zm11.962,1.34a1.689,1.689,0,0,0-.613-.452,1.613,1.613,0,0,0-.589-.113,1.967,1.967,0,0,0-.807.161,1.776,1.776,0,0,0-.613.436,1.991,1.991,0,0,0-.4.646,2.29,2.29,0,0,0-.137.8,2.525,2.525,0,0,0,.137.848,2.047,2.047,0,0,0,.4.67,1.871,1.871,0,0,0,.613.444,1.967,1.967,0,0,0,.807.161,1.48,1.48,0,0,0,.67-.161,1.87,1.87,0,0,0,.613-.533l.84.6a2.287,2.287,0,0,1-.944.775,2.944,2.944,0,0,1-1.187.242,3.434,3.434,0,0,1-1.219-.21,2.911,2.911,0,0,1-.953-.605,2.86,2.86,0,0,1-.622-.944,3.175,3.175,0,0,1-.226-1.219,3.281,3.281,0,0,1,.226-1.243,2.822,2.822,0,0,1,.622-.961,2.747,2.747,0,0,1,.953-.605,3.319,3.319,0,0,1,1.219-.218,2.709,2.709,0,0,1,1.074.21,2.461,2.461,0,0,1,.928.694ZM50,318.545h1.017v2.276h2.672v-2.276H54.7v5.715H53.687v-2.519H51.015v2.519H50Zm7.6,0h3.786v.92H58.613v1.4h2.623v.92H58.613v1.55h2.914v.92H57.6Z" transform="translate(0 -292.698)"/><path class="c" d="M15.788,28.906H11.559a3.827,3.827,0,0,1-1.8-.194,1.211,1.211,0,0,1-.551-.948c-.02-.357.228-.793.725-1.664l9.26-16.236c.5-.884.756-1.326,1.077-1.49a1.211,1.211,0,0,1,1.1,0c.321.164.574.605,1.079,1.489l2.136,3.732a5.359,5.359,0,0,1,.632,1.3,2.424,2.424,0,0,1,0,1.122,5.358,5.358,0,0,1-.631,1.3l-5.537,9.7a5.365,5.365,0,0,1-.813,1.221,2.422,2.422,0,0,1-.982.57,5.368,5.368,0,0,1-1.464.1" transform="translate(-8.459 -7.574)"/><path class="c" d="M194.883,166.182h-4.9a3.85,3.85,0,0,1-1.819-.2,1.211,1.211,0,0,1-.549-.955c-.018-.359.237-.8.746-1.671l2.448-4.2c.5-.863.754-1.3,1.073-1.457a1.211,1.211,0,0,1,1.1,0c.319.161.571.593,1.075,1.455l2.456,4.2c.511.875.767,1.312.749,1.672a1.211,1.211,0,0,1-.549.956,3.854,3.854,0,0,1-1.821.2" transform="translate(-172.467 -144.85)"/><path class="c" d="M465.787,28.906h-4.229a3.828,3.828,0,0,1-1.8-.194,1.211,1.211,0,0,1-.551-.948c-.02-.357.228-.793.725-1.664l9.26-16.236c.5-.884.756-1.326,1.077-1.49a1.211,1.211,0,0,1,1.1,0c.321.164.574.605,1.079,1.489l2.136,3.732a5.356,5.356,0,0,1,.632,1.3,2.423,2.423,0,0,1,0,1.122,5.356,5.356,0,0,1-.631,1.3l-5.537,9.7a5.364,5.364,0,0,1-.813,1.221,2.422,2.422,0,0,1-.982.57,5.368,5.368,0,0,1-1.464.1" transform="translate(-422.133 -7.574)"/><path class="c" d="M644.883,166.182h-4.9a3.849,3.849,0,0,1-1.819-.2,1.21,1.21,0,0,1-.549-.955c-.018-.359.237-.8.746-1.671l2.448-4.2c.5-.863.754-1.3,1.073-1.457a1.211,1.211,0,0,1,1.1,0c.319.161.571.593,1.075,1.455l2.456,4.2c.511.875.767,1.312.749,1.672a1.211,1.211,0,0,1-.549.956,3.854,3.854,0,0,1-1.821.2" transform="translate(-586.142 -144.85)"/><path class="c" d="M241.869,0H237.53a3.825,3.825,0,0,0-1.8.194,1.211,1.211,0,0,0-.551.948c-.02.357.227.792.723,1.663l9.225,16.21c.514.9.772,1.356,1.1,1.52a1.211,1.211,0,0,0,1.114-.01c.322-.17.571-.627,1.068-1.54l2.21-4.054a5.342,5.342,0,0,0,.6-1.3,2.422,2.422,0,0,0-.015-1.107,5.347,5.347,0,0,0-.632-1.279l-5.448-9.381A5.358,5.358,0,0,0,244.3.661,2.422,2.422,0,0,0,243.322.1a5.362,5.362,0,0,0-1.453-.1" transform="translate(-216.191 0.001)"/><path class="c" d="M420.86,0h-4.91a3.848,3.848,0,0,0-1.817.2,1.211,1.211,0,0,0-.549.954c-.018.359.236.8.744,1.67l2.451,4.218c.5.865.754,1.3,1.073,1.46a1.211,1.211,0,0,0,1.1,0c.319-.162.571-.594,1.075-1.459l2.459-4.218c.51-.875.765-1.312.747-1.671A1.211,1.211,0,0,0,422.679.2a3.853,3.853,0,0,0-1.82-.2" transform="translate(-380.197)"/></g></svg>