<svg xmlns="http://www.w3.org/2000/svg" width="76.883" height="24.705" viewBox="0 0 76.883 24.705"><defs><style>.a{fill:#fff;}</style></defs><path class="a" d="M26.448,20.348a8.721,8.721,0,0,1-3.434-3.383,9.628,9.628,0,0,1-1.23-4.818,9.492,9.492,0,0,1,1.23-4.818,9.068,9.068,0,0,1,3.434-3.383,9.2,9.2,0,0,1,2.665-.974l.718.615a9.053,9.053,0,0,0-2.87.974,8.569,8.569,0,0,0-3.127,3.075,8.556,8.556,0,0,0-1.128,4.408,8.556,8.556,0,0,0,1.128,4.408,7.845,7.845,0,0,0,3.127,3.075A9.358,9.358,0,0,0,30.343,20.6h0l-.718.718h0A8.227,8.227,0,0,1,26.448,20.348Zm27.37,0a8.721,8.721,0,0,0,3.434-3.383,9.628,9.628,0,0,0,1.23-4.818,9.492,9.492,0,0,0-1.23-4.818,9.068,9.068,0,0,0-3.434-3.383,9.2,9.2,0,0,0-2.665-.974l-.718.615a9.053,9.053,0,0,1,2.87.974,8.569,8.569,0,0,1,3.127,3.075,8.556,8.556,0,0,1,1.128,4.408,8.556,8.556,0,0,1-1.128,4.408,7.845,7.845,0,0,1-3.127,3.075A9.358,9.358,0,0,1,49.923,20.6h0l.718.718h0A8.227,8.227,0,0,0,53.818,20.348ZM52.434.666,51.819,0,40.082,11.686,28.4,0,27.78.666,39.467,12.353,27.78,24.039l.615.666L40.082,13.019,51.768,24.705l.615-.666L40.748,12.353ZM76.883,3.742V22.45h-.769L62.839,5.433V22.45h-.923V3.742h.769L75.96,20.758V3.742Zm-41,20.912h.513V21.168h-.513Zm4.049-3.485v2.614l-2.1-2.614h-.41v3.485h.513V22.04l2.1,2.614h.41V21.168ZM43,24.705a2.057,2.057,0,0,0,.769-.154,1.454,1.454,0,0,0,.564-.41l-.308-.308a1.4,1.4,0,0,1-.974.41,1.637,1.637,0,0,1-.718-.154,1.454,1.454,0,0,1-.513-.461,1.521,1.521,0,0,1,0-1.333.917.917,0,0,1,.513-.461,1.637,1.637,0,0,1,.718-.154,1.312,1.312,0,0,1,.974.41l.308-.308a2.276,2.276,0,0,0-.564-.41A1.712,1.712,0,0,0,43,21.22a1.77,1.77,0,0,0-.923.256,1.919,1.919,0,0,0-.666.615,1.789,1.789,0,0,0,0,1.845,1.558,1.558,0,0,0,.666.615A4.949,4.949,0,0,0,43,24.705ZM17.786,22.4,17.734,5.536l-8.2,14.249H9.072L.871,5.638V22.45H0V3.742H.769L9.38,18.708,17.888,3.742h.769l.051,18.708-.923-.051Z"/></svg>