<svg xmlns="http://www.w3.org/2000/svg" width="73.71" height="16.505" viewBox="0 0 73.71 16.505"><defs><style>.a{fill:#fff;stroke:rgba(0,0,0,0);}.b{fill:#cf6035;}.c{fill:none;stroke:#fff;stroke-linecap:round;stroke-width:1.5px;}</style></defs><g transform="translate(0.5 0.5)"><path class="a" d="M8.184,1.372A6.8,6.8,0,0,1,9.473.254,8.389,8.389,0,0,0,7.437,0a7.63,7.63,0,0,0,0,15.255,6.961,6.961,0,0,0,2.037-.267A9.06,9.06,0,0,1,8.2,13.862c-4.77-.126-6.832-3.189-6.832-6.28A6.189,6.189,0,0,1,8.184,1.372" transform="translate(0 -0.001)"/><path class="a" d="M25.907,15.222a8.083,8.083,0,0,1-3.188-.63A7.333,7.333,0,0,1,20.281,12.9a7.523,7.523,0,0,1-1.558-2.441A7.911,7.911,0,0,1,18.715,4.7a7.346,7.346,0,0,1,1.544-2.416A7.219,7.219,0,0,1,22.694.619,8.277,8.277,0,0,1,25.907,0a7.428,7.428,0,0,1,3.178.686,7.237,7.237,0,0,1,2.359,1.778,7.924,7.924,0,0,1,1.468,2.441,7.61,7.61,0,0,1,.505,2.672,7.607,7.607,0,0,1-.513,2.683,8.274,8.274,0,0,1-.625,1.286,8.069,8.069,0,0,1-.856,1.177,7.35,7.35,0,0,1-2.362,1.8,7.257,7.257,0,0,1-3.154.7M25.8,1.286A6.374,6.374,0,0,0,19.52,7.578a6.233,6.233,0,0,0,6.158,6.307H25.8a6.225,6.225,0,0,0,6.259-6.309A6.29,6.29,0,0,0,25.8,1.286" transform="translate(-11.244 0)"/><path class="b" d="M31.737,7.783A6.733,6.733,0,0,1,33.088,7.3a7.411,7.411,0,0,1,1.743,4.9,7.813,7.813,0,0,1-1.743,4.777,5.093,5.093,0,0,1-1.3-.538,6.382,6.382,0,0,0,1.7-4.337,6.21,6.21,0,0,0-1.753-4.315" transform="translate(-19.633 -4.516)"/><path class="a" d="M71.085,3.644V6.378h.534s.717-2.13,1.667-2.13h1.243v7.589c0,.758-.5.944-1.471.944v.505h5.381v-.508s-1.492.045-1.492-.944V4.244h1.1c.806,0,1.394,1,1.819,2.13h.566V3.644Z" transform="translate(-43.975 -2.254)"/><path class="a" d="M105.918,13.3H100.81v-.572c1.089,0,1.4-.222,1.4-.988V5.04c0-.42-.388-.631-.714-.733a3.008,3.008,0,0,0-.712-.123V3.635h5.577a6.306,6.306,0,0,1,2.132.305,1.965,1.965,0,0,1,1.452,1.945,2.452,2.452,0,0,1-.371,1.335,2.706,2.706,0,0,1-.816.807,3.744,3.744,0,0,1-1.187.5c.023.028,2.461,3.1,2.963,3.657a1.89,1.89,0,0,0,1.335.538h.026V13.3h-3.747a53.084,53.084,0,0,0-3.127-4.348h-.4v2.789a.866.866,0,0,0,.526.844,1.773,1.773,0,0,0,.714.146h.056V13.3Zm-1.3-9.039V8.268h.632c1.253,0,1.971-.788,1.971-2.163a1.742,1.742,0,0,0-1.971-1.845Z" transform="translate(-62.35 -2.247)"/><path class="a" d="M141.768,3.186h-.637l-.386.355a6.908,6.908,0,0,0-2.648-.608c-2.853,0-5.4,1.716-5.4,5.225s2.67,4.973,5.192,4.973A8.859,8.859,0,0,0,142.22,12V8.4h-3.775v.519s1.455-.02,1.455,1v1.911a2.659,2.659,0,0,1-1.8.594c-1.2,0-2.67-.982-2.67-4.417s1.64-4.466,2.67-4.466,2.281.477,3.127,3.167h.626Z" transform="translate(-82.093 -1.814)"/><path class="a" d="M173.144,3.184h-.663l-.387.352a5.272,5.272,0,0,0-2.5-.631,5.039,5.039,0,0,0-5.32,5.252c0,3.371,2.485,4.936,5.32,4.936a4.646,4.646,0,0,0,4.013-2.672l-.572-.371s-1.1,2.078-3.056,2.078-2.964-1.628-2.964-4.212.884-4.379,2.577-4.379,2.522,1.67,2.982,3.173h.638Z" transform="translate(-101.622 -1.798)"/><line class="c" x2="44.734" transform="translate(27.726 15.255)"/></g></svg>